<?xml version="1.0" encoding="UTF-8"?>
<svg id="Layer_1" xmlns="http://www.w3.org/2000/svg" viewBox="0 0 51.46 34.56">
  <defs>
    <style>
      .cls-1, .cls-2 {
        fill: #10605c;
      }

      .cls-2 {
        stroke: #10605c;
        stroke-miterlimit: 10;
        stroke-width: 1.38px;
      }
    </style>
  </defs>
  <path class="cls-2" d="M29.24,24.05c2.34.82,4.34,1.77,5.66,3.63.82,1.16,1.42,2.47,2.09,3.73.19.36.2.81.4,1.16.42.73-.1,1.09-.58,1.18-.29.05-.81-.38-.98-.72-.43-.87-.67-1.84-1.08-2.72-2.04-4.44-7.97-6.15-12.23-4.77-3.65,1.18-6.16,3.49-6.91,7.4-.12.62-.38,1.14-1.04.83-.34-.16-.72-.83-.64-1.16.97-4.09,3.46-6.87,7.43-8.3.18-.07.37-.13.41-.15-.95-1.06-1.92-2.07-2.82-3.15-1.33-1.6-1.15-4.44.02-6.23,2.27-3.46,5.45-4.14,9.17-3.26,2.96.7,5.7,3.97,5.19,7.12-.31,1.89-1.25,3.46-2.88,4.57-.34.23-.67.47-1.21.84ZM25.75,12.66c-3.18-.05-6.02,2.22-6,5.22.02,3.03,2.49,5.34,5.87,5.38,3.26.04,5.9-2.34,6.03-5.24.12-2.8-2.82-5.45-5.9-5.36Z"/>
  <path class="cls-1" d="M12.87,10.58c1.38-1.23,2.7-2.39,4.01-3.57,2.23-2.01,4.44-4.04,6.7-6.03,1.56-1.38,2.92-1.27,4.44.11,4.94,4.44,9.92,8.84,14.87,13.26,2.62,2.34,5.24,4.68,7.85,7.04.91.83.96,2.19.17,3.04-.79.84-2.6.93-3.48.15-2.24-1.99-4.48-3.97-6.7-5.98-2.47-2.23-4.91-4.48-7.37-6.71-1.87-1.7-3.74-3.39-5.63-5.06-.5-.45-1.04-.88-1.62-1.21-.23-.12-.73-.03-.94.15-1.63,1.39-3.22,2.82-4.82,4.24-2.38,2.12-4.77,4.24-7.14,6.37-2.7,2.43-5.42,4.83-8.08,7.3-1.5,1.39-2.64,1.77-4,1.08-1.34-.68-1.5-2.44-.36-3.42,2.14-1.85,4.27-3.7,6.35-5.62.37-.34.64-.99.65-1.5.07-2.26.02-4.52.04-6.78.02-1.46.9-2.23,2.46-2.22,1.36,0,2.35.94,2.37,2.26.01.92.01,1.85.02,2.77,0,.06.07.11.2.33Z"/>
</svg>